<svg xmlns="http://www.w3.org/2000/svg" width="512" height="512" viewBox="0 0 512 512">
    <defs>
        <linearGradient id="bg" x1="0" y1="0" x2="512" y2="512" gradientUnits="userSpaceOnUse">
            <stop offset="0" stop-color="#007986"/>
            <stop offset="1" stop-color="#005965"/>
        </linearGradient>
    </defs>
    <rect width="512" height="512" fill="url(#bg)"/>
    <path fill="#F4E7C1" fill-rule="evenodd" d="M148 120h216c25 0 45 20 45 45v182c0 25-20 45-45 45H148c-25 0-45-20-45-45V165c0-25 20-45 45-45zM171 120h29v272h-29zM254 215v82l71-41z"/>
    <path d="M148 120h216c25 0 45 20 45 45v182c0 25-20 45-45 45H148c-25 0-45-20-45-45V165c0-25 20-45 45-45z" fill="none" stroke="#F8EFD6" stroke-opacity="0.38" stroke-width="10"/>
</svg>
